# xmcd
#
# Track frame offsets: 
#        150
#        7875
#        20025
#        36600
#        48525
#        54000
#        70350
#        83025
#        94575
#        109050
#        118350
#        127425
#        136200
#        169200
#        176550
#        187425
#        196500
#        221625
#        232950
#
# Disc length: 3216 seconds
#
# Revision: 7
# Processed by: cddbd v1.5.2PL0 Copyright (c) Steve Scherf et al.
# Submitted via: ExactAudioCopyFreeDBPlugin 1.0
#
DISCID=170c8e13
DTITLE=Chopin - 17 Chansons polonaises op. 74, 2 op. deest
DYEAR=2006
DGENRE=Romantique
TTITLE0=Zyczenie - Le Voeu, en sol majeur
TTITLE1=Wiosna - Le Printemps, en sol mineur
TTITLE2=Smutna Rzeka - Triste rivire, en fa dise mineur
TTITLE3=Hulanka - Rjouissances, en ut majeur
TTITLE4=Gdzie lubi - Ce qu'elle aime, en la majeur
TTITLE5=Precz z moich oczu - Loin des yeux, en fa mineur
TTITLE6=Posel - La messagre, en r majeur
TTITLE7=Sliczny chlopiec - Beau garon, en r majeur
TTITLE8=Melodia - Mlodie, en sol majeur
TTITLE9=Wojak - Le Combattant, en la bmol majeur
TTITLE10=Dwojaki koniec - La double fin, en r mineur
TTITLE11=Moja pieszczotka - Ma chrie, en sol bmol majeur
TTITLE12=Nie ma czego trzeba - Je n'ai pas ce qu'il me faut, en la min
TTITLE12=eur
TTITLE13=Pierscien - L'anneau, en mi bmol majeur 
TTITLE14=Narzeczony - Le fianc, en ut mineur
TTITLE15=Piosnka litewska - Chanson lituanienne, en fa majeur
TTITLE16=Leci liscie z drzewa (Spiew z mogilki) - Les feuilles tombent
TTITLE16=(Chant de la tombe), en mi bmol mineur
TTITLE17=Czary - Sorcellerie
TTITLE18=Dumka - Rverie, en la mineur
EXTD=YEAR: 2006
EXTT0=
EXTT1=
EXTT2=
EXTT3=
EXTT4=
EXTT5=
EXTT6=
EXTT7=
EXTT8=
EXTT9=
EXTT10=
EXTT11=
EXTT12=
EXTT13=
EXTT14=
EXTT15=
EXTT16=
EXTT17=
EXTT18=
PLAYORDER=
